<svg width="115" height="49" viewBox="0 0 115 49" fill="none" xmlns="http://www.w3.org/2000/svg">
<rect y="1" width="115" height="48" rx="8" fill="white"/>
<path d="M41.8877 20.373L38.9141 29H37.1162L40.8623 19.0469H42.0107L41.8877 20.373ZM44.376 29L41.3955 20.373L41.2656 19.0469H42.4209L46.1807 29H44.376ZM44.2324 25.3086V26.6689H38.8184V25.3086H44.2324ZM51.6426 27.4688V18.5H53.2969V29H51.7998L51.6426 27.4688ZM46.8301 25.3838V25.2402C46.8301 24.6797 46.8962 24.1693 47.0283 23.709C47.1605 23.2441 47.3519 22.8454 47.6025 22.5127C47.8532 22.1755 48.1585 21.918 48.5186 21.7402C48.8786 21.5579 49.2842 21.4668 49.7354 21.4668C50.182 21.4668 50.5739 21.5534 50.9111 21.7266C51.2484 21.8997 51.5355 22.1481 51.7725 22.4717C52.0094 22.7907 52.1986 23.1735 52.3398 23.6201C52.4811 24.0622 52.5814 24.5544 52.6406 25.0967V25.5547C52.5814 26.0833 52.4811 26.5664 52.3398 27.0039C52.1986 27.4414 52.0094 27.8197 51.7725 28.1387C51.5355 28.4577 51.2461 28.7038 50.9043 28.877C50.5671 29.0501 50.1729 29.1367 49.7217 29.1367C49.2751 29.1367 48.8717 29.0433 48.5117 28.8564C48.1562 28.6696 47.8532 28.4076 47.6025 28.0703C47.3519 27.7331 47.1605 27.3366 47.0283 26.8809C46.8962 26.4206 46.8301 25.9215 46.8301 25.3838ZM48.4775 25.2402V25.3838C48.4775 25.721 48.5072 26.0355 48.5664 26.3271C48.6302 26.6188 48.7282 26.8763 48.8604 27.0996C48.9925 27.3184 49.1634 27.4915 49.373 27.6191C49.5872 27.7422 49.8424 27.8037 50.1387 27.8037C50.5124 27.8037 50.82 27.7217 51.0615 27.5576C51.3031 27.3936 51.4922 27.1725 51.6289 26.8945C51.7702 26.612 51.8659 26.2975 51.916 25.9512V24.7139C51.8887 24.445 51.8317 24.1943 51.7451 23.9619C51.6631 23.7295 51.5514 23.5267 51.4102 23.3535C51.2689 23.1758 51.0934 23.0391 50.8838 22.9434C50.6787 22.8431 50.4349 22.793 50.1523 22.793C49.8516 22.793 49.5964 22.8568 49.3867 22.9844C49.1771 23.112 49.0039 23.2874 48.8672 23.5107C48.735 23.734 48.637 23.9938 48.5732 24.29C48.5094 24.5863 48.4775 24.903 48.4775 25.2402ZM57.4258 27.6943L59.2373 21.6035H60.9463L58.376 29H57.3096L57.4258 27.6943ZM56.0381 21.6035L57.8838 27.7217L57.9727 29H56.9062L54.3223 21.6035H56.0381ZM65.1299 29.1367C64.583 29.1367 64.0885 29.0479 63.6465 28.8701C63.209 28.6878 62.8353 28.4349 62.5254 28.1113C62.2201 27.7878 61.9854 27.4072 61.8213 26.9697C61.6572 26.5322 61.5752 26.0605 61.5752 25.5547V25.2812C61.5752 24.7025 61.6595 24.1784 61.8281 23.709C61.9967 23.2396 62.2314 22.8385 62.5322 22.5059C62.833 22.1686 63.1885 21.9111 63.5986 21.7334C64.0088 21.5557 64.4531 21.4668 64.9316 21.4668C65.4603 21.4668 65.9229 21.5557 66.3193 21.7334C66.7158 21.9111 67.0439 22.1618 67.3037 22.4854C67.568 22.8044 67.764 23.1849 67.8916 23.627C68.0238 24.069 68.0898 24.5566 68.0898 25.0898V25.7939H62.375V24.6113H66.4629V24.4814C66.4538 24.1852 66.3945 23.9072 66.2852 23.6475C66.1803 23.3877 66.0186 23.1781 65.7998 23.0186C65.5811 22.859 65.2894 22.7793 64.9248 22.7793C64.6514 22.7793 64.4076 22.8385 64.1934 22.957C63.9837 23.071 63.8083 23.2373 63.667 23.4561C63.5257 23.6748 63.4163 23.9391 63.3389 24.249C63.266 24.5544 63.2295 24.8984 63.2295 25.2812V25.5547C63.2295 25.8783 63.2728 26.179 63.3594 26.457C63.4505 26.7305 63.5827 26.9697 63.7559 27.1748C63.929 27.3799 64.1387 27.5417 64.3848 27.6602C64.6309 27.7741 64.9111 27.8311 65.2256 27.8311C65.6221 27.8311 65.9753 27.7513 66.2852 27.5918C66.5951 27.4323 66.8639 27.2067 67.0918 26.915L67.96 27.7559C67.8005 27.9883 67.5931 28.2116 67.3379 28.4258C67.0827 28.6354 66.7705 28.8063 66.4014 28.9385C66.0368 29.0706 65.613 29.1367 65.1299 29.1367ZM71.0293 23.0117V29H69.3818V21.6035H70.9541L71.0293 23.0117ZM73.292 21.5557L73.2783 23.0869C73.1781 23.0687 73.0687 23.055 72.9502 23.0459C72.8363 23.0368 72.7223 23.0322 72.6084 23.0322C72.3258 23.0322 72.0775 23.0732 71.8633 23.1553C71.6491 23.2327 71.4691 23.3467 71.3232 23.4971C71.182 23.6429 71.0726 23.8206 70.9951 24.0303C70.9176 24.2399 70.8721 24.4746 70.8584 24.7344L70.4824 24.7617C70.4824 24.2969 70.528 23.8662 70.6191 23.4697C70.7103 23.0732 70.847 22.7246 71.0293 22.4238C71.2161 22.123 71.4486 21.8883 71.7266 21.7197C72.0091 21.5511 72.335 21.4668 72.7041 21.4668C72.8044 21.4668 72.9115 21.4759 73.0254 21.4941C73.1439 21.5124 73.2327 21.5329 73.292 21.5557ZM78.0566 21.6035V22.8066H73.8867V21.6035H78.0566ZM75.0898 19.792H76.7373V26.9561C76.7373 27.1839 76.7692 27.3594 76.833 27.4824C76.9014 27.6009 76.9948 27.6807 77.1133 27.7217C77.2318 27.7627 77.3708 27.7832 77.5303 27.7832C77.6442 27.7832 77.7536 27.7764 77.8584 27.7627C77.9632 27.749 78.0475 27.7354 78.1113 27.7217L78.1182 28.9795C77.9814 29.0205 77.8219 29.057 77.6396 29.0889C77.4619 29.1208 77.2568 29.1367 77.0244 29.1367C76.6462 29.1367 76.3112 29.0706 76.0195 28.9385C75.7279 28.8018 75.5 28.5807 75.3359 28.2754C75.1719 27.9701 75.0898 27.5645 75.0898 27.0586V19.792ZM81.0918 21.6035V29H79.4375V21.6035H81.0918ZM79.3281 19.6621C79.3281 19.4115 79.4102 19.2041 79.5742 19.04C79.7428 18.8714 79.9753 18.7871 80.2715 18.7871C80.5632 18.7871 80.7933 18.8714 80.9619 19.04C81.1305 19.2041 81.2148 19.4115 81.2148 19.6621C81.2148 19.9082 81.1305 20.1133 80.9619 20.2773C80.7933 20.4414 80.5632 20.5234 80.2715 20.5234C79.9753 20.5234 79.7428 20.4414 79.5742 20.2773C79.4102 20.1133 79.3281 19.9082 79.3281 19.6621ZM87.0459 26.9971C87.0459 26.833 87.0049 26.6849 86.9229 26.5527C86.8408 26.416 86.6836 26.293 86.4512 26.1836C86.2233 26.0742 85.8861 25.974 85.4395 25.8828C85.0475 25.7962 84.6875 25.6937 84.3594 25.5752C84.0358 25.4521 83.7578 25.304 83.5254 25.1309C83.293 24.9577 83.113 24.7526 82.9854 24.5156C82.8577 24.2786 82.7939 24.0052 82.7939 23.6953C82.7939 23.3945 82.86 23.1097 82.9922 22.8408C83.1243 22.5719 83.3135 22.335 83.5596 22.1299C83.8057 21.9248 84.1042 21.763 84.4551 21.6445C84.8105 21.526 85.207 21.4668 85.6445 21.4668C86.2643 21.4668 86.7952 21.5716 87.2373 21.7812C87.6839 21.9863 88.0257 22.2666 88.2627 22.6221C88.4997 22.973 88.6182 23.3695 88.6182 23.8115H86.9707C86.9707 23.6156 86.9206 23.4333 86.8203 23.2646C86.7246 23.0915 86.5788 22.9525 86.3828 22.8477C86.1868 22.7383 85.9408 22.6836 85.6445 22.6836C85.362 22.6836 85.1273 22.7292 84.9404 22.8203C84.7581 22.9069 84.6214 23.0208 84.5303 23.1621C84.4437 23.3034 84.4004 23.4583 84.4004 23.627C84.4004 23.75 84.4232 23.8617 84.4688 23.9619C84.5189 24.0576 84.6009 24.1465 84.7148 24.2285C84.8288 24.306 84.9837 24.3789 85.1797 24.4473C85.3802 24.5156 85.6309 24.5817 85.9316 24.6455C86.4967 24.764 86.9821 24.9167 87.3877 25.1035C87.7979 25.2858 88.1123 25.5228 88.3311 25.8145C88.5498 26.1016 88.6592 26.4661 88.6592 26.9082C88.6592 27.2363 88.5885 27.5371 88.4473 27.8105C88.3105 28.0794 88.11 28.3141 87.8457 28.5146C87.5814 28.7106 87.2646 28.8633 86.8955 28.9727C86.5309 29.082 86.1208 29.1367 85.665 29.1367C84.9951 29.1367 84.4277 29.0182 83.9629 28.7812C83.498 28.5397 83.1449 28.2321 82.9033 27.8584C82.6663 27.4801 82.5479 27.0882 82.5479 26.6826H84.1406C84.1589 26.988 84.2432 27.2318 84.3936 27.4141C84.5485 27.5918 84.7399 27.7217 84.9678 27.8037C85.2002 27.8812 85.4395 27.9199 85.6855 27.9199C85.9818 27.9199 86.2301 27.8812 86.4307 27.8037C86.6312 27.7217 86.7839 27.6123 86.8887 27.4756C86.9935 27.3343 87.0459 27.1748 87.0459 26.9971ZM91.8652 21.6035V29H90.2109V21.6035H91.8652ZM90.1016 19.6621C90.1016 19.4115 90.1836 19.2041 90.3477 19.04C90.5163 18.8714 90.7487 18.7871 91.0449 18.7871C91.3366 18.7871 91.5667 18.8714 91.7354 19.04C91.904 19.2041 91.9883 19.4115 91.9883 19.6621C91.9883 19.9082 91.904 20.1133 91.7354 20.2773C91.5667 20.4414 91.3366 20.5234 91.0449 20.5234C90.7487 20.5234 90.5163 20.4414 90.3477 20.2773C90.1836 20.1133 90.1016 19.9082 90.1016 19.6621ZM95.3037 23.1826V29H93.6562V21.6035H95.208L95.3037 23.1826ZM95.0098 25.0283L94.4766 25.0215C94.4811 24.4974 94.554 24.0166 94.6953 23.5791C94.8411 23.1416 95.0417 22.7656 95.2969 22.4512C95.5566 22.1367 95.8665 21.8952 96.2266 21.7266C96.5866 21.5534 96.9876 21.4668 97.4297 21.4668C97.7852 21.4668 98.1064 21.5169 98.3936 21.6172C98.6852 21.7129 98.9336 21.8701 99.1387 22.0889C99.3483 22.3076 99.5078 22.5924 99.6172 22.9434C99.7266 23.2897 99.7812 23.7158 99.7812 24.2217V29H98.127V24.2148C98.127 23.8594 98.0745 23.5791 97.9697 23.374C97.8695 23.1644 97.7214 23.0163 97.5254 22.9297C97.334 22.8385 97.0947 22.793 96.8076 22.793C96.5251 22.793 96.2721 22.8522 96.0488 22.9707C95.8255 23.0892 95.6364 23.251 95.4814 23.4561C95.3311 23.6611 95.2148 23.8981 95.1328 24.167C95.0508 24.4359 95.0098 24.723 95.0098 25.0283ZM106.2 21.6035H107.697V28.7949C107.697 29.4603 107.556 30.0254 107.273 30.4902C106.991 30.9551 106.597 31.3083 106.091 31.5498C105.585 31.7959 104.999 31.9189 104.334 31.9189C104.051 31.9189 103.737 31.8779 103.391 31.7959C103.049 31.7139 102.716 31.5817 102.393 31.3994C102.074 31.2217 101.807 30.987 101.593 30.6953L102.365 29.7246C102.63 30.0391 102.921 30.2692 103.24 30.415C103.559 30.5609 103.894 30.6338 104.245 30.6338C104.623 30.6338 104.945 30.5632 105.209 30.4219C105.478 30.2852 105.685 30.0824 105.831 29.8135C105.977 29.5446 106.05 29.2165 106.05 28.8291V23.2783L106.2 21.6035ZM101.176 25.3838V25.2402C101.176 24.6797 101.244 24.1693 101.381 23.709C101.518 23.2441 101.714 22.8454 101.969 22.5127C102.224 22.1755 102.534 21.918 102.898 21.7402C103.263 21.5579 103.675 21.4668 104.136 21.4668C104.614 21.4668 105.022 21.5534 105.359 21.7266C105.701 21.8997 105.986 22.1481 106.214 22.4717C106.442 22.7907 106.619 23.1735 106.747 23.6201C106.879 24.0622 106.977 24.5544 107.041 25.0967V25.5547C106.982 26.0833 106.882 26.5664 106.74 27.0039C106.599 27.4414 106.412 27.8197 106.18 28.1387C105.947 28.4577 105.66 28.7038 105.318 28.877C104.981 29.0501 104.582 29.1367 104.122 29.1367C103.671 29.1367 103.263 29.0433 102.898 28.8564C102.538 28.6696 102.229 28.4076 101.969 28.0703C101.714 27.7331 101.518 27.3366 101.381 26.8809C101.244 26.4206 101.176 25.9215 101.176 25.3838ZM102.823 25.2402V25.3838C102.823 25.721 102.855 26.0355 102.919 26.3271C102.987 26.6188 103.09 26.8763 103.227 27.0996C103.368 27.3184 103.546 27.4915 103.76 27.6191C103.979 27.7422 104.236 27.8037 104.532 27.8037C104.92 27.8037 105.236 27.7217 105.482 27.5576C105.733 27.3936 105.924 27.1725 106.057 26.8945C106.193 26.612 106.289 26.2975 106.344 25.9512V24.7139C106.316 24.445 106.259 24.1943 106.173 23.9619C106.091 23.7295 105.979 23.5267 105.838 23.3535C105.697 23.1758 105.519 23.0391 105.305 22.9434C105.09 22.8431 104.838 22.793 104.546 22.793C104.25 22.793 103.992 22.8568 103.773 22.9844C103.555 23.112 103.375 23.2874 103.233 23.5107C103.097 23.734 102.994 23.9938 102.926 24.29C102.857 24.5863 102.823 24.903 102.823 25.2402Z" fill="black"/>
<rect x="6" y="12" width="25" height="25" fill="white"/>
<path fill-rule="evenodd" clip-rule="evenodd" d="M8.86201 23.668C8.09097 23.971 7.7115 24.8416 8.01446 25.6127L9.62615 29.7146C9.9291 30.4856 10.7998 30.8651 11.5708 30.5621L13.0469 29.9821L14.5141 33.7164C14.7011 34.1923 15.2385 34.4265 15.7145 34.2395C16.1904 34.0525 16.4246 33.5151 16.2376 33.0392L14.7704 29.305L14.7707 29.3048L12.6105 23.8068C12.3076 23.0358 11.4369 22.6563 10.6659 22.9593L8.86201 23.668Z" fill="#FF8B00"/>
<path fill-rule="evenodd" clip-rule="evenodd" d="M13.2944 21.4926C12.893 21.9152 12.7726 22.5319 12.9858 23.0743L14.9959 28.1902C15.209 28.7326 15.717 29.1025 16.2987 29.1387L23.1922 29.5683C24.2875 29.6366 25.0829 28.5441 24.6816 27.5227L23.2855 23.9696C24.2373 23.5956 24.7057 22.5208 24.3317 21.569C23.9577 20.6171 22.883 20.1487 21.9311 20.5226L20.5352 16.9698C20.1339 15.9484 18.8075 15.6896 18.0516 16.4852L13.2944 21.4926Z" fill="#FF8B00"/>
<line x1="23.4361" y1="18.3027" x2="24.9195" y2="16.325" stroke="#FF0000" stroke-linecap="round"/>
<line x1="25.8361" y1="20.6075" x2="28.0364" y2="19.4802" stroke="#FF0000" stroke-linecap="round"/>
<line x1="26.1853" y1="23.6347" x2="28.6323" y2="23.987" stroke="#FF0000" stroke-linecap="round"/>
</svg>
