<svg width="30" height="30" viewBox="0 0 30 30" fill="none" xmlns="http://www.w3.org/2000/svg">
<path fill-rule="evenodd" clip-rule="evenodd" d="M3 6C1.89543 6 1 6.89543 1 8V23C1 24.1046 1.89543 25 3 25H21C22.1046 25 23 24.1046 23 23V18.6342L27.8832 22.4604C28.5396 22.9747 29.5 22.5071 29.5 21.6733V9.32672C29.5 8.49291 28.5396 8.0253 27.8832 8.53957L23 12.3658V8C23 6.89543 22.1046 6 21 6H3Z" fill="white"/>
<path d="M15.3544 15.0807C15.658 15.2778 15.658 15.7222 15.3544 15.9193L10.7724 18.8955C10.4397 19.1115 10 18.8728 10 18.4761L10 12.5239C10 12.1272 10.4397 11.8885 10.7724 12.1045L15.3544 15.0807Z" fill="black"/>
</svg>
