<svg width="24" height="24" viewBox="0 0 24 24" fill="none" xmlns="http://www.w3.org/2000/svg">
<g clip-path="url(#clip0_1010_5585)">
<path fill-rule="evenodd" clip-rule="evenodd" d="M18.5407 6.87346C18.8336 6.58057 18.8336 6.10569 18.5407 5.8128C18.2478 5.51991 17.773 5.51991 17.4801 5.8128L12 11.2929L6.51992 5.8128C6.22703 5.51991 5.75216 5.51991 5.45926 5.8128C5.16637 6.10569 5.16637 6.58057 5.45926 6.87346L10.9393 12.3535L5.81282 17.4801C5.51992 17.773 5.51992 18.2478 5.81282 18.5407C6.10571 18.8336 6.58058 18.8336 6.87348 18.5407L12 13.4142L17.1265 18.5407C17.4194 18.8336 17.8943 18.8336 18.1872 18.5407C18.4801 18.2478 18.4801 17.773 18.1872 17.4801L13.0607 12.3535L18.5407 6.87346Z" fill="#E6E6E6"/>
</g>
<defs>
<clipPath id="clip0_1010_5585">
<rect width="24" height="24" fill="white"/>
</clipPath>
</defs>
</svg>
