<svg width="68" height="68" viewBox="0 0 68 68" fill="none" xmlns="http://www.w3.org/2000/svg">
<g clip-path="url(#clip0_1010_5609)">
<path d="M33.9997 40.1663C37.4054 40.1663 40.1663 37.4054 40.1663 33.9997C40.1663 30.5939 37.4054 27.833 33.9997 27.833C30.5939 27.833 27.833 30.5939 27.833 33.9997C27.833 37.4054 30.5939 40.1663 33.9997 40.1663Z" fill="white" stroke="#383838"/>
<path d="M26.833 15.9987L26.8301 16.0018L24.6555 18.3886H18.8886C16.5347 18.3886 14.6108 20.3124 14.6108 22.6663V45.333C14.6108 47.6869 16.5347 49.6108 18.8886 49.6108H49.1108C51.4648 49.6108 53.3886 47.6869 53.3886 45.333V22.6663C53.3886 20.3124 51.4648 18.3886 49.1108 18.3886H43.3427L41.152 16.0036C41.1515 16.003 41.1511 16.0025 41.1506 16.0019C40.3562 15.1226 39.2016 14.6108 38.0042 14.6108H29.9953C28.7959 14.6108 27.6438 15.1239 26.833 15.9987ZM33.9997 42.9441C29.0625 42.9441 25.0553 38.9369 25.0553 33.9997C25.0553 29.0625 29.0625 25.0552 33.9997 25.0552C38.9369 25.0552 42.9442 29.0625 42.9442 33.9997C42.9442 38.9369 38.9369 42.9441 33.9997 42.9441Z" fill="white" stroke="#383838"/>
</g>
<defs>
<clipPath id="clip0_1010_5609">
<rect width="45.3333" height="45.3333" fill="white" transform="translate(11.333 11.333)"/>
</clipPath>
</defs>
</svg>
